<svg width="300" height="200" viewBox="0 0 300 200" fill="none" xmlns="http://www.w3.org/2000/svg">
  <rect width="300" height="200" rx="10" fill="transparent" class="svg-bg"/>
  
  <!-- Círculo central representando o fundo -->
  <circle cx="150" cy="100" r="50" fill="#4361EE" fill-opacity="0.1" stroke="#4361EE" stroke-width="2" class="fund-circle"/>
  
  <!-- Círculos menores representando os investidores -->
  <circle cx="77" cy="75" r="20" fill="#4CC9F0" fill-opacity="0.2" stroke="#4CC9F0" stroke-width="2" class="investor-circle"/>
  <circle cx="72" cy="136" r="15" fill="#4CC9F0" fill-opacity="0.2" stroke="#4CC9F0" stroke-width="2" class="investor-circle"/>
  <circle cx="222" cy="59" r="18" fill="#4CC9F0" fill-opacity="0.2" stroke="#4CC9F0" stroke-width="2" class="investor-circle"/>
  <circle cx="230" cy="130" r="22" fill="#4CC9F0" fill-opacity="0.2" stroke="#4CC9F0" stroke-width="2" class="investor-circle"/>
  
  <!-- Linhas conectando os investidores ao fundo -->
  <path d="M95 80L125 90" stroke="#3A0CA3" stroke-width="2" class="connection-line"/>
  <path d="M85 130L120 110" stroke="#3A0CA3" stroke-width="2" class="connection-line"/>
  <path d="M205 65L170 85" stroke="#3A0CA3" stroke-width="2" class="connection-line"/>
  <path d="M210 125L175 110" stroke="#3A0CA3" stroke-width="2" class="connection-line"/>
  
  <!-- Símbolos dentro do fundo representando diferentes tipos de investimentos -->
  <rect x="130" y="85" width="10" height="30" rx="2" fill="#4361EE" class="investment-bar"/>
  <rect x="145" y="75" width="10" height="40" rx="2" fill="#4361EE" class="investment-bar"/>
  <rect x="160" y="90" width="10" height="25" rx="2" fill="#4361EE" class="investment-bar"/>
  
  <!-- Símbolo de porcentagem -->
  <circle cx="150" cy="140" r="10" fill="#4CC9F0" class="percent-circle"/>
  <path d="M145 135L155 145" stroke="white" stroke-width="2" stroke-linecap="round" class="percent-symbol"/>
  <path d="M155 135L145 145" stroke="white" stroke-width="2" stroke-linecap="round" class="percent-symbol"/>
</svg> 