<svg width="500" height="400" viewBox="0 0 500 400" fill="none" xmlns="http://www.w3.org/2000/svg">
  <!-- Fundo -->
  <rect width="500" height="400" rx="20" fill="none"/>
  
  <!-- Gráfico crescente -->
  <path d="M100 300L150 250L200 270L250 200L300 220L350 150L400 100" stroke="#FFFFFF" stroke-width="4" stroke-linecap="round" stroke-linejoin="round"/>
  <circle cx="150" cy="250" r="8" fill="#FFFFFF"/>
  <circle cx="200" cy="270" r="8" fill="#FFFFFF"/>
  <circle cx="250" cy="200" r="8" fill="#FFFFFF"/>
  <circle cx="300" cy="220" r="8" fill="#FFFFFF"/>
  <circle cx="350" cy="150" r="8" fill="#FFFFFF"/>
  <circle cx="400" cy="100" r="8" fill="#FFFFFF"/>
  
  <!-- Pessoa (silhueta simplificada) - Mudando para branco -->
  <circle cx="180" cy="150" r="40" fill="#FFFFFF"/>
  <rect x="140" y="190" width="80" height="120" rx="20" fill="#FFFFFF"/>
  <rect x="120" y="220" width="30" height="80" rx="10" fill="#FFFFFF"/>
  <rect x="210" y="220" width="30" height="80" rx="10" fill="#FFFFFF"/>
  
  <!-- Moedas/Investimentos - Mudando para cores mais claras -->
  <circle cx="300" cy="300" r="30" fill="#FFFFFF"/>
  <path d="M300 280V320" stroke="#4361EE" stroke-width="4" stroke-linecap="round"/>
  <path d="M285 290H315C318.866 290 322 293.134 322 297C322 300.866 318.866 304 315 304H285C281.134 304 278 300.866 278 297C278 293.134 281.134 290 285 290Z" stroke="#4361EE" stroke-width="4"/>
  
  <circle cx="370" cy="270" r="25" fill="#FFFFFF"/>
  <path d="M370 255V285" stroke="#4361EE" stroke-width="3" stroke-linecap="round"/>
  <path d="M357.5 262.5H382.5C385.538 262.5 388 264.962 388 268C388 271.038 385.538 273.5 382.5 273.5H357.5C354.462 273.5 352 271.038 352 268C352 264.962 354.462 262.5 357.5 262.5Z" stroke="#4361EE" stroke-width="3"/>
  
  <circle cx="420" cy="320" r="20" fill="#FFFFFF"/>
  <path d="M420 310V330" stroke="#4361EE" stroke-width="3" stroke-linecap="round"/>
  <path d="M410 315H430C432.761 315 435 317.239 435 320C435 322.761 432.761 325 430 325H410C407.239 325 405 322.761 405 320C405 317.239 407.239 315 410 315Z" stroke="#4361EE" stroke-width="3"/>
  
  <!-- Elementos decorativos - Aumentando a opacidade -->
  <circle cx="100" cy="100" r="15" fill="#FFFFFF" fill-opacity="0.5"/>
  <circle cx="450" cy="150" r="12" fill="#FFFFFF" fill-opacity="0.5"/>
  <circle cx="80" cy="350" r="10" fill="#FFFFFF" fill-opacity="0.5"/>
  <circle cx="450" cy="350" r="8" fill="#FFFFFF" fill-opacity="0.5"/>
  
  <!-- Setas para cima (crescimento) - Mudando para branco -->
  <path d="M400 250L420 230L440 250" stroke="#FFFFFF" stroke-width="3" stroke-linecap="round" stroke-linejoin="round"/>
  <path d="M420 230V280" stroke="#FFFFFF" stroke-width="3" stroke-linecap="round"/>
  
  <path d="M350 350L370 330L390 350" stroke="#FFFFFF" stroke-width="3" stroke-linecap="round" stroke-linejoin="round"/>
  <path d="M370 330V380" stroke="#FFFFFF" stroke-width="3" stroke-linecap="round"/>
</svg> 